<?xml version="1.0" encoding="utf-8"?>
<!-- Generator: Adobe Illustrator 18.1.1, SVG Export Plug-In . SVG Version: 6.00 Build 0)  -->
<svg version="1.1" id="Capa_1" xmlns="http://www.w3.org/2000/svg" xmlns:xlink="http://www.w3.org/1999/xlink" x="0px" y="0px"
	 viewBox="226 287 99 99" enable-background="new 226 287 99 99" xml:space="preserve">
<g opacity="0.24">
	<g id="Down">
		<g>
			<path fill="#FFFFFF" d="M275.5,287c-27.3,0-49.5,22.2-49.5,49.5s22.2,49.5,49.5,49.5s49.5-22.2,49.5-49.5S302.8,287,275.5,287z
				 M275.5,376.7c-22.2,0-40.2-18-40.2-40.2s18-40.2,40.2-40.2s40.2,18,40.2,40.2S297.7,376.7,275.5,376.7z M292.5,324.1
				c-1.4,0-2.6,0.6-3.4,1.5l0,0l-13.6,14.8l-13.6-14.8l0,0c-0.8-0.9-2.1-1.5-3.4-1.5c-2.6,0-4.6,2.1-4.6,4.6c0,1.2,0.5,2.3,1.2,3.1
				l0,0l17,18.6c0.9,1,2.1,1.5,3.4,1.5s2.5-0.5,3.4-1.5l17-18.6l0,0c0.8-0.8,1.2-1.9,1.2-3.1C297.2,326.2,295.1,324.1,292.5,324.1z"
				/>
		</g>
	</g>
</g>
</svg>
