<?xml version="1.0" encoding="utf-8"?>
<!-- Generator: Adobe Illustrator 18.1.1, SVG Export Plug-In . SVG Version: 6.00 Build 0)  -->
<svg version="1.1" id="Capa_1" xmlns="http://www.w3.org/2000/svg" xmlns:xlink="http://www.w3.org/1999/xlink" x="0px" y="0px"
	 viewBox="-17 19 124 124" enable-background="new -17 19 124 124" xml:space="preserve">
<g>
	<path fill="#FFFFFF" d="M95,25H-5c-6.6,0-12,5.4-12,12s5.4,12,12,12H95c6.6,0,12-5.4,12-12S101.6,25,95,25z"/>
	<path fill="#FFFFFF" d="M95,69H-5c-6.6,0-12,5.4-12,12s5.4,12,12,12H95c6.6,0,12-5.4,12-12S101.6,69,95,69z"/>
	<path fill="#FFFFFF" d="M95,113H-5c-6.6,0-12,5.4-12,12c0,6.6,5.4,12,12,12H95c6.6,0,12-5.4,12-12C107,118.4,101.6,113,95,113z"/>
</g>
</svg>
